# xmcd
#
# Track frame offsets:
#	150
#	13694
#	25256
#	40396
#	51368
#	69418
#	78682
#	91392
#	118408
#	130323
#
# Disc length: 2100 seconds
#
# Revision: 1
# Processed by: cddbd v1.5.1PL0 Copyright (c) Steve Scherf et al.
# Submitted via: audiograbber 1.83.01
#
DISCID=8c08320a
DTITLE=Jimmy Dean - Greatest Hits
DYEAR=1900
DGENRE=
TTITLE0=Big Bad John
TTITLE1=The Cajun Queen
TTITLE2=PT 109
TTITLE3=Little Black Book
TTITLE4=Dear Ivan
TTITLE5=The First Thing Every Morning
TTITLE6=Bumming Around
TTITLE7=To A Sleeping Beauty
TTITLE8=Stand Beside Me
TTITLE9=IOU
EXTD=
EXTT0=
EXTT1=
EXTT2=
EXTT3=
EXTT4=
EXTT5=
EXTT6=
EXTT7=
EXTT8=
EXTT9=
PLAYORDER=
